
<svg xmlns="http://www.w3.org/2000/svg" shape-rendering="geometricPrecision" text-rendering="geometricPrecision" image-rendering="optimizeQuality" fill-rule="evenodd" clip-rule="evenodd" viewBox="0 0 500 511.56"><path fill-rule="nonzero" d="M117.91 0h201.68c3.93 0 7.44 1.83 9.72 4.67l114.28 123.67c2.21 2.37 3.27 5.4 3.27 8.41l.06 310c0 35.43-29.4 64.81-64.8 64.81H117.91c-35.57 0-64.81-29.24-64.81-64.81V64.8C53.1 29.13 82.23 0 117.91 0zM325.5 37.15v52.94c2.4 31.34 23.57 42.99 52.93 43.5l36.16-.04-89.09-96.4zm96.5 121.3l-43.77-.04c-42.59-.68-74.12-21.97-77.54-66.54l-.09-66.95H117.91c-21.93 0-39.89 17.96-39.89 39.88v381.95c0 21.82 18.07 39.89 39.89 39.89h264.21c21.71 0 39.88-18.15 39.88-39.89v-288.3z"/><path fill="red" d="M28.04 194.61h443.92c15.43 0 28.04 12.63 28.04 28.04v188.54c0 15.4-12.63 28.04-28.04 28.04H28.04C12.64 439.23 0 426.61 0 411.19V222.65c0-15.43 12.62-28.04 28.04-28.04z"/><path fill="#fff" fill-rule="nonzero" d="M102.76 377.38H62.32l7.35-120.93h50.5l15.09 61.53h1.36l15.09-61.53h50.5l7.35 120.93h-40.44l-2.32-58.62h-1.35l-14.71 58.62h-29.6l-14.9-58.62h-1.16l-2.32 58.62zm185.17-29.21h-25.16v29.21h-38.69V256.45h60.94c27.74 0 41.6 14.9 41.6 44.7 0 16.38-3.61 28.51-10.83 36.38-2.71 2.96-6.45 5.48-11.22 7.54-4.78 2.07-10.32 3.1-16.64 3.1zm-25.16-60.76v29.8h8.9c4.65 0 8.03-.48 10.16-1.45 2.13-.97 3.19-3.19 3.19-6.68v-13.54c0-3.48-1.06-5.71-3.19-6.68-2.13-.96-5.51-1.45-10.16-1.45h-8.9zm133.32 11.61v-12.58c-3.87-.64-10.13-.96-18.77-.96-8.65 0-19.42 1.35-32.31 4.06l-5.04-28.64c15.74-4.9 30.96-7.35 45.67-7.35 12.64 0 21.8.77 27.47 2.32 5.68 1.55 9.87 3.42 12.58 5.61 5.93 5.04 8.9 12.65 8.9 22.84 0 12.9-5.35 22.18-16.06 27.86v.97c12.77 5.28 19.16 14.9 19.16 28.83 0 6.83-1.07 12.67-3.2 17.51-2.12 4.83-4.8 8.57-8.03 11.22-3.22 2.64-7.48 4.74-12.77 6.29-7.86 2.19-18.93 3.29-33.18 3.29s-28.54-1.68-42.86-5.03l5.42-31.93c12.25 2.97 22.64 4.45 31.15 4.45 8.52 0 15.8-.39 21.87-1.16v-12.38l-33.28-3.29v-28.06l33.28-3.87z"/></svg>