
<svg xmlns="http://www.w3.org/2000/svg" shape-rendering="geometricPrecision" text-rendering="geometricPrecision" image-rendering="optimizeQuality" fill-rule="evenodd" clip-rule="evenodd" viewBox="0 0 500 511.56"><path fill-rule="nonzero" d="M117.91 0h201.68c3.93 0 7.44 1.83 9.72 4.67l114.28 123.67c2.21 2.37 3.27 5.4 3.27 8.41l.06 310c0 35.43-29.4 64.81-64.8 64.81H117.91c-35.57 0-64.81-29.24-64.81-64.81V64.8C53.1 29.13 82.23 0 117.91 0zM325.5 37.15v52.94c2.4 31.34 23.57 42.99 52.93 43.5l36.16-.04-89.09-96.4zm96.5 121.3l-43.77-.04c-42.59-.68-74.12-21.97-77.54-66.54l-.09-66.95H117.91c-21.93 0-39.89 17.96-39.89 39.88v381.95c0 21.82 18.07 39.89 39.89 39.89h264.21c21.71 0 39.88-18.15 39.88-39.89v-288.3z"/><path fill="red" d="M28.04 194.61h443.92c15.43 0 28.04 12.67 28.04 28.04v188.54c0 15.37-12.66 28.04-28.04 28.04H28.04C12.67 439.23 0 426.61 0 411.19V222.65c0-15.43 12.62-28.04 28.04-28.04z"/><path fill="#fff" fill-rule="nonzero" d="M184.51 287.41h-28.06v89.97h-38.7v-89.97H89.7v-30.96h94.81v30.96zm52.14-30.96L250 288.77h1.94l13.35-32.32h41.98l-26.89 58.44 26.89 62.49h-42.95l-14.51-34.82h-1.74l-14.32 34.82h-41.02l26.31-61.33-26.31-59.6h43.92zm173.66 30.96h-28.06v89.97h-38.7v-89.97H315.5v-30.96h94.81v30.96z"/></svg>